# Blender v2.81 (sub 16) OBJ File: ''
# www.blender.org
mtllib arm_stand.mtl
o Arm_Stand
v 0.099996 0.000000 0.020464
v 0.100004 0.000000 0.479464
v 0.070706 -0.070711 0.020464
v 0.070715 -0.070711 0.479464
v -0.000004 -0.100000 0.020466
v 0.000004 -0.100000 0.479466
v -0.070715 -0.070711 0.020467
v -0.070706 -0.070711 0.479467
v -0.100004 -0.000000 0.020468
v -0.099996 -0.000000 0.479468
v -0.070715 0.070711 0.020467
v -0.070706 0.070711 0.479467
v -0.000004 0.100000 0.020466
v 0.000004 0.100000 0.479466
v 0.070706 0.070711 0.020464
v 0.070715 0.070711 0.479464
v 0.099996 0.000000 0.020464
v 0.100004 0.000000 0.479464
v -0.000004 0.000000 0.020466
v 0.000004 0.000000 0.479466
vn 0.9239 -0.3827 -0.0000
vn 0.3827 -0.9239 -0.0000
vn -0.3827 -0.9239 0.0000
vn -0.9239 -0.3827 0.0000
vn -0.9239 0.3827 0.0000
vn -0.3827 0.9239 0.0000
vn 0.3827 0.9239 -0.0000
vn 0.9239 0.3827 -0.0000
vn -0.0000 0.0000 -1.0000
vn 0.0000 -0.0000 1.0000
g Arm_Stand_Arm_Stand_None
usemtl None
s off
f 1//1 2//1 3//1
f 2//1 4//1 3//1
f 3//2 4//2 5//2
f 4//2 6//2 5//2
f 5//3 6//3 7//3
f 6//3 8//3 7//3
f 7//4 8//4 9//4
f 8//4 10//4 9//4
f 9//5 10//5 11//5
f 10//5 12//5 11//5
f 11//6 12//6 13//6
f 12//6 14//6 13//6
f 13//7 14//7 15//7
f 14//7 16//7 15//7
f 15//8 16//8 17//8
f 16//8 18//8 17//8
f 1//9 3//9 19//9
f 3//9 5//9 19//9
f 5//9 7//9 19//9
f 7//9 9//9 19//9
f 9//9 11//9 19//9
f 11//9 13//9 19//9
f 13//9 15//9 19//9
f 15//9 17//9 19//9
f 4//10 2//10 20//10
f 6//10 4//10 20//10
f 8//10 6//10 20//10
f 10//10 8//10 20//10
f 12//10 10//10 20//10
f 14//10 12//10 20//10
f 16//10 14//10 20//10
f 18//10 16//10 20//10
