# Blender v2.81 (sub 16) OBJ File: ''
# www.blender.org
mtllib computer_box.mtl
o Computer_Box
v 0.200000 0.300000 0.300000
v 0.200000 -0.300000 0.300000
v 0.200000 0.300000 -0.300000
v 0.200000 -0.300000 -0.300000
v -0.200000 0.300000 -0.300000
v -0.200000 -0.300000 -0.300000
v -0.200000 0.300000 0.300000
v -0.200000 -0.300000 0.300000
vn 1.0000 0.0000 0.0000
vn -1.0000 0.0000 0.0000
vn 0.0000 1.0000 0.0000
vn 0.0000 -1.0000 0.0000
vn 0.0000 0.0000 1.0000
vn 0.0000 0.0000 -1.0000
g Computer_Box_Computer_Box_None
usemtl None
s off
f 1//1 2//1 3//1
f 2//1 4//1 3//1
f 5//2 6//2 7//2
f 6//2 8//2 7//2
f 5//3 7//3 3//3
f 7//3 1//3 3//3
f 8//4 6//4 2//4
f 6//4 4//4 2//4
f 7//5 8//5 1//5
f 8//5 2//5 1//5
f 3//6 4//6 5//6
f 4//6 6//6 5//6
