# Blender v2.81 (sub 16) OBJ File: ''
# www.blender.org
mtllib apple.mtl
o node_shape0
v 0.000430 -0.000260 0.010644
v -0.000205 -0.000343 0.007214
v -0.000128 -0.000069 0.004664
v 0.000491 -0.000438 0.005654
v 0.000505 -0.000602 0.009464
v 0.000722 0.000167 0.008594
v -0.001114 -0.000026 0.011084
v -0.001558 0.000092 0.013034
v -0.002915 -0.000201 0.012584
v -0.002256 -0.000764 0.012894
v -0.003098 -0.003097 -0.012286
v -0.010687 0.004275 -0.003226
v 0.006201 -0.003195 -0.010976
v 0.003932 -0.007379 -0.009566
v 0.001170 0.010230 0.004624
v -0.007551 0.009066 -0.000356
v -0.009974 0.006005 0.000704
v -0.009650 -0.007019 -0.002306
v -0.009449 -0.006273 0.003414
v -0.011277 0.001888 0.001514
v -0.011572 -0.002104 -0.000966
v -0.009836 -0.002221 0.006184
v -0.005546 -0.008550 0.005964
v -0.009875 -0.004466 -0.005886
v -0.010701 0.000305 -0.005426
v -0.007932 -0.009220 0.000124
v -0.004882 -0.010582 0.002064
v -0.004567 -0.010750 -0.003266
v 0.004581 -0.010914 -0.001246
v 0.001146 -0.011405 0.001934
v 0.004975 -0.009703 0.004584
v -0.000933 -0.011481 -0.003836
v 0.003453 -0.010465 -0.005116
v -0.006245 -0.008622 -0.006466
v 0.011336 -0.002324 -0.000026
v 0.008747 -0.007056 0.003384
v 0.009299 -0.007577 -0.001916
v 0.009432 0.006592 -0.002306
v 0.011009 0.002986 -0.000516
v 0.010373 0.003827 0.003004
v 0.007398 0.006638 0.005644
v 0.010439 0.002841 -0.004766
v 0.008326 0.005978 -0.006216
v 0.005719 0.006268 -0.008886
v 0.007149 -0.007909 -0.006196
v 0.010318 -0.002771 -0.005546
v 0.003841 0.010412 -0.004106
v 0.007715 0.008793 0.000124
v 0.005099 0.010265 0.000984
v -0.001822 0.011306 -0.000096
v -0.004408 0.009216 0.005284
v -0.002798 0.009175 -0.007606
v -0.009104 0.006394 -0.005016
v -0.005170 0.010024 -0.003496
v 0.002895 0.008503 -0.008186
v -0.001014 0.000688 -0.010716
v -0.000384 0.000012 -0.010476
v 0.000749 -0.001071 -0.010686
v 0.004865 0.004669 0.008284
v 0.001867 0.006358 0.008794
v 0.000127 0.008433 0.007864
v 0.004909 0.007533 0.007084
v 0.007579 0.002552 0.008234
v 0.004928 -0.005415 0.008204
v 0.008350 -0.000289 0.008234
v 0.009630 -0.003725 0.005174
v 0.007441 -0.003306 0.008084
v 0.005996 -0.006939 0.007174
v -0.000923 -0.009972 0.006304
v -0.000026 -0.007629 0.008874
v -0.007063 -0.003568 0.008304
v -0.005675 -0.007011 0.007564
v -0.005498 0.004468 0.008294
v -0.009892 0.002002 0.005694
v -0.007843 0.000232 0.008584
v -0.008168 0.005795 0.006094
v -0.000568 0.006780 0.008844
v -0.004682 0.007059 0.007734
v -0.001713 0.002300 0.006804
v 0.002460 0.003478 0.007834
v 0.003694 0.001747 0.007894
v 0.002438 -0.001702 0.006804
v 0.005315 -0.000035 0.008784
v 0.003546 -0.004518 0.008224
v -0.000059 -0.005475 0.008694
v -0.004514 -0.005077 0.008294
v -0.004307 -0.003388 0.008174
v -0.005905 -0.000485 0.008854
v -0.002788 0.000784 0.006884
v -0.004085 0.002584 0.008004
v -0.002490 0.004524 0.008394
v -0.001787 0.005429 -0.011976
v -0.004919 0.004876 -0.010836
v -0.004966 0.000433 -0.012676
v -0.005504 -0.001445 -0.012266
v -0.008596 -0.000071 -0.009526
v -0.006934 0.001613 -0.011026
v -0.006087 -0.004284 -0.010626
v -0.002082 -0.005927 -0.011936
v 0.000043 -0.008339 -0.009926
v 0.000561 -0.005542 -0.012516
v 0.004718 -0.001582 -0.012436
v 0.005786 0.000714 -0.012136
v 0.007169 0.000311 -0.011136
v 0.001045 0.006589 -0.011426
v -0.002509 0.002473 -0.012436
v 0.000102 0.004239 -0.012886
v -0.003351 -0.000437 -0.013026
v 0.002414 -0.002734 -0.012356
v 0.003198 -0.000079 -0.013066
v 0.003739 0.003856 -0.011766
v 0.002214 0.001425 -0.012456
v -0.000099 0.002782 -0.012976
v -0.002072 -0.002129 -0.012166
v -0.000957 -0.001086 -0.010686
v -0.000042 -0.003108 -0.013056
v 0.001894 -0.001834 -0.012186
v 0.000789 0.000673 -0.010696
v 0.001558 0.002086 -0.012426
v -0.001474 0.001801 -0.012126
v 0.000751 0.000769 0.004654
v 0.000432 0.002455 0.006824
v 0.000964 -0.000943 0.004644
v 0.001929 0.001295 0.006314
v 0.000027 -0.002509 0.006184
v -0.001686 -0.003670 0.007674
v -0.001120 -0.000994 0.004634
v -0.002502 -0.001797 0.006684
v -0.001051 0.000698 0.004664
vt 0.000000 1.000000
vt 0.000000 1.000000
vt 0.000000 1.000000
vt 0.000000 1.000000
vt 0.000000 1.000000
vt 0.000000 1.000000
vt 0.000000 1.000000
vt 0.000000 1.000000
vt 0.000000 1.000000
vt 0.000000 1.000000
vt 0.000000 1.000000
vt 0.000000 1.000000
vt 0.000000 1.000000
vt 0.000000 1.000000
vt 0.000000 1.000000
vt 0.000000 1.000000
vt 0.000000 1.000000
vt 0.000000 1.000000
vt 0.000000 1.000000
vt 0.000000 1.000000
vt 0.000000 1.000000
vt 0.000000 1.000000
vt 0.000000 1.000000
vt 0.000000 1.000000
vt 0.000000 1.000000
vt 0.000000 1.000000
vt 0.000000 1.000000
vt 0.000000 1.000000
vt 0.000000 1.000000
vt 0.000000 1.000000
vt 0.000000 1.000000
vt 0.000000 1.000000
vt 0.000000 1.000000
vt 0.000000 1.000000
vt 0.000000 1.000000
vt 0.000000 1.000000
vt 0.000000 1.000000
vt 0.000000 1.000000
vt 0.000000 1.000000
vt 0.000000 1.000000
vt 0.000000 1.000000
vt 0.000000 1.000000
vt 0.000000 1.000000
vt 0.000000 1.000000
vt 0.000000 1.000000
vt 0.000000 1.000000
vt 0.000000 1.000000
vt 0.000000 1.000000
vt 0.000000 1.000000
vt 0.000000 1.000000
vt 0.000000 1.000000
vt 0.000000 1.000000
vt 0.000000 1.000000
vt 0.000000 1.000000
vt 0.000000 1.000000
vt 0.000000 1.000000
vt 0.000000 1.000000
vt 0.000000 1.000000
vt 0.000000 1.000000
vt 0.000000 1.000000
vt 0.000000 1.000000
vt 0.000000 1.000000
vt 0.000000 1.000000
vt 0.000000 1.000000
vt 0.000000 1.000000
vt 0.000000 1.000000
vt 0.000000 1.000000
vt 0.000000 1.000000
vt 0.000000 1.000000
vt 0.000000 1.000000
vt 0.000000 1.000000
vt 0.000000 1.000000
vt 0.000000 1.000000
vt 0.000000 1.000000
vt 0.000000 1.000000
vt 0.000000 1.000000
vt 0.000000 1.000000
vt 0.000000 1.000000
vt 0.000000 1.000000
vt 0.000000 1.000000
vt 0.000000 1.000000
vt 0.000000 1.000000
vt 0.000000 1.000000
vt 0.000000 1.000000
vt 0.000000 1.000000
vt 0.000000 1.000000
vt 0.000000 1.000000
vt 0.000000 1.000000
vt 0.000000 1.000000
vt 0.000000 1.000000
vt 0.000000 1.000000
vt 0.000000 1.000000
vt 0.000000 1.000000
vt 0.000000 1.000000
vt 0.000000 1.000000
vt 0.000000 1.000000
vt 0.000000 1.000000
vt 0.000000 1.000000
vt 0.000000 1.000000
vt 0.000000 1.000000
vt 0.000000 1.000000
vt 0.000000 1.000000
vt 0.000000 1.000000
vt 0.000000 1.000000
vt 0.000000 1.000000
vt 0.000000 1.000000
vt 0.000000 1.000000
vt 0.000000 1.000000
vt 0.000000 1.000000
vt 0.000000 1.000000
vt 0.000000 1.000000
vt 0.000000 1.000000
vt 0.000000 1.000000
vt 0.000000 1.000000
vt 0.000000 1.000000
vt 0.000000 1.000000
vt 0.000000 1.000000
vt 0.000000 1.000000
vt 0.000000 1.000000
vt 0.000000 1.000000
vt 0.000000 1.000000
vt 0.000000 1.000000
vt 0.000000 1.000000
vt 0.000000 1.000000
vt 0.000000 1.000000
vt 0.000000 1.000000
vt 0.000000 1.000000
vt 0.000000 1.000000
vt 0.000000 1.000000
vn -0.2241 -0.9737 -0.0410
vn -0.3727 -0.9214 -0.1104
vn 0.7131 0.6735 -0.1947
vn -0.5614 0.8244 0.0718
vn 0.9576 -0.2875 -0.0160
vn -0.2998 0.9425 -0.1476
vn -0.7219 -0.3486 -0.5977
vn -0.3365 -0.9417 -0.0018
vn 0.9821 -0.1549 0.1073
vn 0.3973 -0.8744 0.2784
vn 0.2089 0.9510 0.2280
vn -0.3358 0.1210 0.9341
vn -0.3816 -0.7464 -0.5452
vn 0.5870 -0.5723 0.5726
vn -0.1779 0.9790 -0.0998
vn 0.1419 0.9895 -0.0275
vn -0.9491 0.0240 0.3139
vn -0.8841 0.3720 0.2828
vn -0.9913 0.1141 -0.0659
vn -0.7100 0.6531 0.2633
vn -0.7949 0.6014 -0.0799
vn -0.8327 0.5465 -0.0894
vn -0.9506 0.3082 0.0369
vn -0.8870 0.3419 0.3105
vn -0.9327 -0.3188 -0.1685
vn -0.8350 -0.5411 0.0998
vn -0.9204 -0.3823 0.0821
vn -0.9694 -0.0739 0.2341
vn -0.9433 -0.2440 0.2250
vn -0.6558 -0.5700 0.4950
vn -0.8883 -0.1107 -0.4458
vn -0.7434 -0.2848 -0.6051
vn -0.9549 -0.1399 -0.2620
vn -0.7249 -0.5817 -0.3691
vn -0.6651 -0.5041 -0.5509
vn -0.9856 0.0847 -0.1467
vn -0.8498 0.2577 -0.4598
vn -0.8533 0.2516 -0.4567
vn -0.7902 0.3077 -0.5300
vn -0.6670 0.4468 -0.5963
vn -0.1253 -0.9588 0.2550
vn -0.2961 -0.8668 0.4013
vn -0.1944 -0.9807 0.0193
vn -0.1336 -0.9891 0.0613
vn -0.4100 -0.9121 0.0044
vn -0.6290 -0.7004 0.3375
vn -0.5458 -0.7776 0.3123
vn 0.5847 -0.8012 0.1269
vn 0.5981 -0.7891 0.1398
vn 0.1155 -0.9929 -0.0284
vn 0.2962 -0.9389 0.1750
vn 0.1501 -0.9162 0.3715
vn 0.6035 -0.6525 0.4583
vn 0.0759 -0.8910 -0.4476
vn 0.2489 -0.8083 -0.5336
vn 0.1770 -0.9704 -0.1642
vn 0.5444 -0.8120 -0.2106
vn 0.3914 -0.7754 -0.4955
vn 0.5028 -0.8296 -0.2428
vn -0.6291 -0.7430 -0.2285
vn -0.5781 -0.7859 -0.2194
vn -0.2433 -0.8617 -0.4453
vn -0.2921 -0.7509 -0.5924
vn -0.2230 -0.8513 -0.4750
vn -0.4606 -0.6056 -0.6490
vn 0.9285 0.0153 0.3711
vn 0.9505 -0.0042 0.3108
vn 0.9133 -0.3521 0.2048
vn 0.9068 -0.3998 0.1337
vn 0.9307 0.3394 -0.1363
vn 0.8437 0.5227 0.1226
vn 0.9029 0.4255 0.0615
vn 0.9843 0.0755 0.1598
vn 0.9897 0.0487 -0.1343
vn 0.8351 0.2265 0.5013
vn 0.7765 0.5706 0.2673
vn 0.7856 0.3558 0.5063
vn 0.8811 0.0464 -0.4707
vn 0.7978 0.2942 -0.5264
vn 0.9833 0.0040 -0.1818
vn 0.8489 0.4298 -0.3075
vn 0.6775 0.3985 -0.6182
vn 0.8103 -0.4528 -0.3720
vn 0.9388 -0.3109 -0.1480
vn 0.7822 -0.2421 -0.5741
vn 0.5737 -0.5235 -0.6299
vn 0.7472 -0.3931 -0.5358
vn 0.2393 0.8143 0.5288
vn 0.3548 0.8491 0.3913
vn 0.1500 0.9887 -0.0086
vn 0.1250 0.9816 0.1445
vn 0.4957 0.7868 0.3678
vn 0.5432 0.7711 0.3322
vn -0.3644 0.9312 0.0077
vn -0.3652 0.9135 0.1794
vn -0.1360 0.9438 0.3013
vn -0.4997 0.6772 0.5400
vn -0.6005 0.7349 0.3152
vn -0.0380 0.9626 -0.2682
vn -0.1048 0.9602 -0.2588
vn -0.6099 0.7580 -0.2314
vn -0.5080 0.7372 -0.4454
vn -0.5154 0.6625 -0.5435
vn 0.4659 0.8803 -0.0898
vn 0.5788 0.7645 -0.2836
vn 0.6087 0.7453 -0.2722
vn 0.5235 0.7348 -0.4313
vn 0.4779 0.7480 -0.4607
vn 0.0617 0.8985 -0.4346
vn 0.0463 0.8482 -0.5276
vn 0.3850 0.6814 -0.6225
vn -0.0210 0.7072 0.7067
vn -0.0046 -0.0064 1.0000
vn 0.0063 -0.0180 0.9998
vn 0.3519 -0.0045 -0.9360
vn -0.0016 0.1886 -0.9821
vn 0.0077 -0.3284 -0.9445
vn -0.1836 -0.0014 -0.9830
vn 0.2345 0.5545 0.7985
vn 0.1006 0.4759 0.8737
vn 0.3487 0.3576 0.8663
vn 0.1821 0.0494 0.9820
vn 0.1081 0.1153 0.9874
vn 0.5628 0.4602 0.6866
vn 0.3006 0.3646 0.8813
vn 0.1675 -0.1176 0.9788
vn 0.1184 -0.0849 0.9893
vn 0.7541 -0.2572 0.6042
vn 0.3377 -0.3529 0.8726
vn 0.7069 -0.4709 0.5277
vn 0.6942 -0.4222 0.5830
vn 0.0964 0.0844 0.9918
vn 0.2913 -0.3870 0.8749
vn 0.2142 -0.7579 0.6161
vn 0.2655 -0.7096 0.6526
vn -0.2427 -0.2117 0.9467
vn -0.2654 -0.7056 0.6570
vn -0.2358 -0.6758 0.6984
vn -0.1763 -0.1083 0.9784
vn -0.1541 -0.2666 0.9514
vn 0.0428 0.0656 0.9969
vn 0.0590 -0.1968 0.9787
vn -0.6998 -0.4475 0.5568
vn -0.6713 -0.4041 0.6214
vn -0.6525 -0.1881 0.7341
vn -0.0935 0.1194 0.9884
vn -0.7969 0.0593 0.6012
vn -0.7094 0.2530 0.6579
vn -0.4972 0.3299 0.8025
vn -0.4971 0.3301 0.8025
vn -0.0121 -0.1857 0.9825
vn -0.1809 0.5569 0.8106
vn -0.0295 -0.1712 0.9848
vn -0.2330 0.2749 0.9328
vn -0.1068 0.8836 0.4558
vn -0.2292 0.7433 0.6285
vn -0.1384 -0.5431 0.8282
vn 0.0477 -0.7479 0.6621
vn 0.0424 -0.3081 0.9504
vn -0.0189 -0.3197 0.9473
vn -0.6681 0.0082 0.7440
vn -0.5627 -0.3759 0.7362
vn -0.1489 -0.0720 0.9862
vn -0.4343 0.0540 0.8991
vn -0.5378 -0.0696 0.8402
vn -0.6172 0.1470 0.7730
vn -0.0526 -0.1033 0.9933
vn -0.3342 0.3163 0.8879
vn 0.0543 0.7566 0.6516
vn 0.0955 0.1252 0.9875
vn -0.0138 0.4823 0.8759
vn 0.2134 0.5276 0.8222
vn -0.4764 0.0659 0.8767
vn 0.1920 0.0462 0.9803
vn 0.0537 0.3102 0.9492
vn 0.6375 -0.0017 0.7705
vn 0.4082 0.0108 0.9128
vn 0.4137 -0.2471 0.8762
vn 0.6661 0.0161 0.7456
vn 0.3046 0.0823 0.9489
vn -0.0331 -0.5889 0.8075
vn 0.3572 -0.4574 0.8143
vn -0.0295 -0.1736 0.9844
vn -0.3686 0.2302 -0.9006
vn -0.3079 0.2193 -0.9258
vn -0.1694 0.7286 -0.6637
vn -0.3561 0.6672 -0.6543
vn -0.0603 0.5441 -0.8368
vn -0.2236 0.3750 -0.8997
vn -0.4754 0.3410 -0.8110
vn -0.2002 -0.2801 -0.9388
vn -0.2758 -0.1291 -0.9525
vn -0.7015 -0.2429 -0.6700
vn -0.6652 -0.0085 -0.7466
vn -0.6374 0.0142 -0.7704
vn -0.3021 -0.4295 -0.8510
vn -0.1721 -0.2538 -0.9518
vn -0.3922 -0.2504 -0.8851
vn -0.0643 -0.6716 -0.7381
vn -0.0934 0.1180 -0.9886
vn 0.2328 -0.6836 -0.6917
vn 0.3909 -0.3936 -0.8320
vn 0.4121 -0.4837 -0.7721
vn 0.5394 -0.1864 -0.8212
vn 0.5902 -0.1714 -0.7889
vn 0.2503 0.2725 -0.9290
vn 0.3486 -0.0398 -0.9364
vn 0.5321 0.4324 -0.7279
vn 0.6103 0.4056 -0.6805
vn 0.3075 0.4100 -0.8587
vn 0.4351 0.5203 -0.7348
vn -0.2289 0.0915 -0.9692
vn 0.3398 0.0914 -0.9360
vn -0.0903 0.2229 -0.9707
vn 0.3203 -0.2255 -0.9201
vn -0.2273 0.3534 -0.9074
vn -0.2399 -0.2036 -0.9492
vn 0.2908 -0.1380 -0.9468
vn -0.5445 -0.0159 -0.8386
vn -0.4606 -0.1000 -0.8819
vn 0.1105 -0.2871 -0.9515
vn -0.0896 0.3235 -0.9420
vn 0.1431 0.1861 -0.9721
vn 0.2937 -0.0055 -0.9559
vn 0.3203 0.0143 -0.9472
vn -0.1136 -0.5548 -0.8242
vn 0.7350 -0.3946 -0.5514
vn 0.6651 0.1288 -0.7356
vn 0.7932 0.0154 -0.6088
vn 0.1011 0.7757 -0.6229
vn -0.0065 0.7594 -0.6505
vn 0.2185 0.3015 -0.9281
vn -0.2480 0.7740 -0.5825
vn -0.7912 0.0146 -0.6114
vn -0.7821 0.0254 -0.6227
vn -0.5468 -0.5126 -0.6620
vn 0.0002 -0.7849 -0.6196
vn -0.0154 -0.6424 -0.7662
vn 0.0107 -0.7767 -0.6298
vn -0.4027 -0.7506 0.5239
vn -0.7956 -0.1024 0.5971
vn -0.8332 -0.0515 0.5505
vn -0.3886 0.7536 0.5303
vn 0.3253 0.7853 0.5267
vn 0.3078 0.5460 0.7792
vn 0.8198 0.0467 0.5708
vn 0.7859 -0.0434 0.6169
vn 0.6904 -0.4601 0.5583
vn 0.0342 -0.7867 0.6163
vn 0.0514 -0.7918 0.6087
g node_shape0_material0
usemtl material0
s off
f 5/1/1 2/2/1 4/3/1
f 3/4/2 4/3/2 2/2/2
f 6/5/3 4/3/3 3/4/3
f 6/5/4 3/4/4 2/2/4
f 4/3/5 6/5/5 5/1/5
f 2/2/6 7/6/6 6/5/6
f 7/6/7 5/1/7 10/7/7
f 2/2/8 5/1/8 7/6/8
f 5/1/9 6/5/9 1/8/9
f 10/7/10 5/1/10 1/8/10
f 7/6/11 1/8/11 6/5/11
f 10/7/12 8/9/12 9/10/12
f 9/10/13 7/6/13 10/7/13
f 8/9/14 10/7/14 1/8/14
f 8/9/15 7/6/15 9/10/15
f 7/6/16 8/9/16 1/8/16
f 74/11/17 20/12/17 22/13/17
f 76/14/18 20/12/18 74/11/18
f 21/15/19 20/12/19 12/16/19
f 17/17/20 76/14/20 16/18/20
f 53/19/21 17/17/21 16/18/21
f 12/16/22 17/17/22 53/19/22
f 12/16/23 20/12/23 17/17/23
f 17/17/24 20/12/24 76/14/24
f 18/20/25 21/15/25 24/21/25
f 26/22/26 19/23/26 18/20/26
f 19/23/27 21/15/27 18/20/27
f 21/15/28 22/13/28 20/12/28
f 21/15/29 19/23/29 22/13/29
f 19/23/30 23/24/30 72/25/30
f 24/21/31 25/26/31 96/27/31
f 98/28/32 24/21/32 96/27/32
f 25/26/33 24/21/33 21/15/33
f 18/20/34 24/21/34 34/29/34
f 34/29/35 24/21/35 98/28/35
f 12/16/36 25/26/36 21/15/36
f 12/16/37 96/27/37 25/26/37
f 12/16/38 53/19/38 96/27/38
f 96/27/39 53/19/39 97/30/39
f 97/30/40 53/19/40 93/31/40
f 69/32/41 27/33/41 30/34/41
f 23/24/42 27/33/42 69/32/42
f 27/33/43 28/35/43 32/36/43
f 30/34/44 27/33/44 32/36/44
f 28/35/45 27/33/45 26/22/45
f 26/22/46 23/24/46 19/23/46
f 26/22/47 27/33/47 23/24/47
f 37/37/48 31/38/48 29/39/48
f 36/40/49 31/38/49 37/37/49
f 29/39/50 30/34/50 32/36/50
f 29/39/51 31/38/51 30/34/51
f 69/32/52 30/34/52 31/38/52
f 31/38/53 36/40/53 68/41/53
f 33/42/54 32/36/54 100/43/54
f 14/44/55 33/42/55 100/43/55
f 32/36/56 33/42/56 29/39/56
f 29/39/57 45/45/57 37/37/57
f 33/42/58 14/44/58 45/45/58
f 29/39/59 33/42/59 45/45/59
f 34/29/60 26/22/60 18/20/60
f 34/29/61 28/35/61 26/22/61
f 28/35/62 34/29/62 32/36/62
f 100/43/63 34/29/63 99/46/63
f 32/36/64 34/29/64 100/43/64
f 99/46/65 34/29/65 98/28/65
f 65/47/66 66/48/66 40/49/66
f 66/48/67 35/50/67 40/49/67
f 36/40/68 35/50/68 66/48/68
f 35/50/69 36/40/69 37/37/69
f 38/51/70 39/52/70 42/53/70
f 48/54/71 40/49/71 38/51/71
f 40/49/72 39/52/72 38/51/72
f 39/52/73 40/49/73 35/50/73
f 42/53/74 39/52/74 35/50/74
f 65/47/75 40/49/75 63/55/75
f 40/49/76 48/54/76 41/56/76
f 63/55/77 40/49/77 41/56/77
f 42/53/78 46/57/78 104/58/78
f 43/59/79 42/53/79 104/58/79
f 46/57/80 42/53/80 35/50/80
f 42/53/81 43/59/81 38/51/81
f 44/60/82 43/59/82 104/58/82
f 45/45/83 46/57/83 37/37/83
f 37/37/84 46/57/84 35/50/84
f 46/57/85 13/61/85 104/58/85
f 13/61/86 45/45/86 14/44/86
f 13/61/87 46/57/87 45/45/87
f 62/62/88 15/63/88 61/64/88
f 62/62/89 49/65/89 15/63/89
f 50/66/90 49/65/90 47/67/90
f 15/63/91 49/65/91 50/66/91
f 41/56/92 49/65/92 62/62/92
f 48/54/93 49/65/93 41/56/93
f 16/18/94 50/66/94 54/68/94
f 16/18/95 51/69/95 50/66/95
f 15/63/96 50/66/96 51/69/96
f 78/70/97 51/69/97 76/14/97
f 51/69/98 16/18/98 76/14/98
f 47/67/99 52/71/99 50/66/99
f 52/71/100 54/68/100 50/66/100
f 16/18/101 54/68/101 53/19/101
f 54/68/102 52/71/102 53/19/102
f 53/19/103 52/71/103 93/31/103
f 47/67/104 49/65/104 48/54/104
f 43/59/105 48/54/105 38/51/105
f 43/59/106 47/67/106 48/54/106
f 44/60/107 47/67/107 43/59/107
f 44/60/108 55/72/108 47/67/108
f 47/67/109 55/72/109 52/71/109
f 52/71/110 55/72/110 105/73/110
f 105/73/111 55/72/111 44/60/111
f 123/74/112 127/75/112 125/76/112
f 123/74/113 121/77/113 127/75/113
f 121/77/114 129/78/114 127/75/114
f 115/79/115 56/80/115 57/81/115
f 58/82/116 115/79/116 57/81/116
f 118/83/117 57/81/117 56/80/117
f 57/81/118 118/83/118 58/82/118
f 61/64/119 60/84/119 62/62/119
f 77/85/120 60/84/120 61/64/120
f 62/62/121 60/84/121 59/86/121
f 65/47/122 63/55/122 83/87/122
f 59/86/123 83/87/123 63/55/123
f 62/62/124 63/55/124 41/56/124
f 59/86/125 63/55/125 62/62/125
f 64/88/126 65/47/126 83/87/126
f 64/88/127 67/89/127 65/47/127
f 65/47/128 67/89/128 66/48/128
f 68/41/129 67/89/129 64/88/129
f 66/48/130 68/41/130 36/40/130
f 66/48/131 67/89/131 68/41/131
f 70/90/132 64/88/132 85/91/132
f 64/88/133 70/90/133 68/41/133
f 31/38/134 70/90/134 69/32/134
f 31/38/135 68/41/135 70/90/135
f 72/25/136 70/90/136 86/92/136
f 69/32/137 72/25/137 23/24/137
f 70/90/138 72/25/138 69/32/138
f 75/93/139 71/94/139 88/95/139
f 71/94/140 72/25/140 86/92/140
f 87/96/141 71/94/141 86/92/141
f 87/96/142 88/95/142 71/94/142
f 72/25/143 22/13/143 19/23/143
f 71/94/144 22/13/144 72/25/144
f 71/94/145 75/93/145 22/13/145
f 73/97/146 75/93/146 88/95/146
f 22/13/147 75/93/147 74/11/147
f 75/93/148 76/14/148 74/11/148
f 76/14/149 73/97/149 78/70/149
f 75/93/150 73/97/150 76/14/150
f 60/84/151 77/85/151 91/98/151
f 61/64/152 78/70/152 77/85/152
f 77/85/153 73/97/153 91/98/153
f 77/85/154 78/70/154 73/97/154
f 51/69/155 61/64/155 15/63/155
f 78/70/156 61/64/156 51/69/156
f 80/99/157 122/100/157 124/101/157
f 122/100/158 80/99/158 79/102/158
f 91/98/159 80/99/159 60/84/159
f 59/86/160 60/84/160 80/99/160
f 82/103/161 81/104/161 124/101/161
f 81/104/162 80/99/162 124/101/162
f 80/99/163 81/104/163 59/86/163
f 59/86/164 81/104/164 83/87/164
f 82/103/165 83/87/165 81/104/165
f 83/87/166 82/103/166 84/105/166
f 64/88/167 83/87/167 84/105/167
f 125/76/168 84/105/168 82/103/168
f 125/76/169 126/106/169 84/105/169
f 64/88/170 84/105/170 85/91/170
f 84/105/171 126/106/171 85/91/171
f 87/96/172 126/106/172 128/107/172
f 85/91/173 126/106/173 70/90/173
f 86/92/174 126/106/174 87/96/174
f 70/90/175 126/106/175 86/92/175
f 90/108/176 87/96/176 128/107/176
f 88/95/177 87/96/177 90/108/177
f 90/108/178 89/109/178 79/102/178
f 89/109/179 90/108/179 128/107/179
f 88/95/180 90/108/180 73/97/180
f 80/99/181 91/98/181 79/102/181
f 91/98/182 90/108/182 79/102/182
f 90/108/183 91/98/183 73/97/183
f 93/31/184 92/110/184 106/111/184
f 106/111/185 92/110/185 107/112/185
f 92/110/186 52/71/186 105/73/186
f 92/110/187 93/31/187 52/71/187
f 107/112/188 92/110/188 105/73/188
f 94/113/189 93/31/189 106/111/189
f 97/30/190 93/31/190 94/113/190
f 95/114/191 108/115/191 11/116/191
f 108/115/192 95/114/192 94/113/192
f 95/114/193 98/28/193 96/27/193
f 97/30/194 95/114/194 96/27/194
f 94/113/195 95/114/195 97/30/195
f 98/28/196 95/114/196 11/116/196
f 101/117/197 99/46/197 116/118/197
f 11/116/198 99/46/198 98/28/198
f 100/43/199 99/46/199 101/117/199
f 102/119/200 101/117/200 109/120/200
f 101/117/201 14/44/201 100/43/201
f 13/61/202 101/117/202 102/119/202
f 14/44/203 101/117/203 13/61/203
f 104/58/204 13/61/204 103/121/204
f 13/61/205 102/119/205 103/121/205
f 103/121/206 110/122/206 111/123/206
f 110/122/207 103/121/207 102/119/207
f 44/60/208 103/121/208 111/123/208
f 104/58/209 103/121/209 44/60/209
f 107/112/210 105/73/210 111/123/210
f 111/123/211 105/73/211 44/60/211
f 113/124/212 106/111/212 107/112/212
f 108/115/213 106/111/213 120/125/213
f 108/115/214 94/113/214 106/111/214
f 11/116/215 108/115/215 114/126/215
f 116/118/216 11/116/216 114/126/216
f 11/116/217 116/118/217 99/46/217
f 116/118/218 109/120/218 101/117/218
f 110/122/219 117/127/219 112/128/219
f 110/122/220 109/120/220 117/127/220
f 109/120/221 110/122/221 102/119/221
f 110/122/222 112/128/222 111/123/222
f 112/128/223 119/129/223 111/123/223
f 119/129/224 107/112/224 111/123/224
f 107/112/225 119/129/225 113/124/225
f 113/124/226 120/125/226 106/111/226
f 120/125/227 56/80/227 108/115/227
f 108/115/228 56/80/228 114/126/228
f 115/79/229 114/126/229 56/80/229
f 115/79/230 116/118/230 114/126/230
f 58/82/231 116/118/231 115/79/231
f 109/120/232 116/118/232 117/127/232
f 116/118/233 58/82/233 117/127/233
f 117/127/234 58/82/234 118/83/234
f 112/128/235 117/127/235 118/83/235
f 119/129/236 112/128/236 118/83/236
f 120/125/237 118/83/237 56/80/237
f 113/124/238 119/129/238 120/125/238
f 119/129/239 118/83/239 120/125/239
f 122/100/240 121/77/240 124/101/240
f 124/101/241 121/77/241 123/74/241
f 124/101/242 123/74/242 82/103/242
f 123/74/243 125/76/243 82/103/243
f 125/76/244 127/75/244 128/107/244
f 126/106/245 125/76/245 128/107/245
f 128/107/246 127/75/246 89/109/246
f 129/78/247 89/109/247 127/75/247
f 89/109/248 129/78/248 79/102/248
f 122/100/249 129/78/249 121/77/249
f 79/102/250 129/78/250 122/100/250
